<?xml version='1.0' encoding='utf-8'?>
<svg xmlns="http://www.w3.org/2000/svg" version="1.1" id="Contours" x="0px" y="0px" width="717.016602" height="712.856445" viewBox="0.000000 0.000000 717.016602 712.856445" stroke="black" fill="none" stroke-linecap="round" stroke-linejoin="round"> <desc> </desc> <path d="M443.9 347.9 C450.5 359.5 443.3 374.0 435.0 384.4 C426.6 394.8 416.4 405.5 416.4 418.9 C437.2 439.0 461.6 455.4 488.0 467.1 C506.7 475.4 528.0 482.7 538.0 500.5 C547.8 495.0 562.1 504.5 560.8 515.7 C573.9 503.4 596.1 518.5 601.0 535.8 C605.9 553.2 602.1 572.3 608.4 589.2 C623.8 631.1 688.3 634.8 707.3 675.2 C711.5 684.1 703.4 694.9 693.8 697.1 C684.2 699.4 674.3 695.9 665.1 692.5 C664.5 698.3 672.1 701.1 677.9 701.8 C687.1 703.0 697.1 704.0 705.2 699.4 C713.2 694.8 717.0 682.0 709.8 676.2 C713.8 683.5 716.0 691.8 716.1 700.2 C695.4 707.4 668.2 712.9 654.8 695.4 C641.4 677.8 627.6 660.0 609.2 647.7 C590.8 635.4 566.7 629.4 546.3 637.9 C532.1 643.7 514.7 655.4 504.1 644.5 C496.7 637.0 484.2 643.0 473.8 641.8 C455.6 639.7 448.1 616.9 432.1 608.0 C415.2 598.6 392.3 606.8 376.0 596.4 C365.2 589.4 359.5 575.4 347.5 571.0 C339.8 568.2 331.3 570.0 323.2 570.0 C315.0 569.9 305.5 566.9 303.1 559.1 C295.4 566.6 284.4 570.5 273.7 569.7 C275.0 585.6 276.3 601.5 277.6 617.4 C278.0 621.5 278.3 625.8 276.6 629.6 C271.1 642.7 251.7 638.5 239.1 632.1 C230.4 640.7 237.2 655.0 242.5 666.0 C247.7 677.1 247.2 695.2 235.0 696.1 C186.1 699.7 136.9 700.2 87.9 697.6 C107.8 691.9 127.8 686.2 147.7 680.5 C169.5 674.2 196.1 661.7 194.8 639.0 C194.0 624.5 181.0 613.6 167.8 607.4 C154.6 601.2 139.9 597.5 128.7 588.2 C117.5 578.9 111.4 560.8 120.8 549.7 C126.2 543.3 119.1 534.4 114.0 527.8 C93.4 501.6 108.6 456.2 140.8 447.7 C150.8 445.1 163.2 444.3 167.7 435.0 C171.7 426.5 182.7 423.3 192.0 425.3 C201.2 427.3 209.0 433.2 216.4 438.9 C223.2 431.2 230.0 423.5 236.8 415.8 C214.9 385.0 177.5 362.8 170.8 325.7 C169.7 319.5 169.6 312.8 172.7 307.4 C178.7 297.2 193.9 296.1 204.2 302.0 C214.4 307.9 220.8 318.6 226.7 328.8 C224.3 328.9 222.0 329.0 219.6 329.1 C212.9 315.8 201.7 305.0 188.2 298.7 C194.6 308.4 200.9 318.1 207.3 327.8 C198.9 319.7 190.6 311.5 182.2 303.4 C187.3 316.8 194.5 329.4 203.5 340.5 C194.0 330.5 184.6 320.5 175.1 310.4 C178.0 320.9 182.7 330.8 188.9 339.8 C183.9 337.8 180.0 333.2 178.8 328.0 C180.6 341.2 183.8 354.7 192.3 364.9 C200.8 375.1 215.8 380.9 227.9 375.4 C238.3 370.6 244.0 358.3 242.8 346.9 C241.7 335.5 234.6 325.3 225.5 318.4 C208.8 305.5 219.0 269.5 198.5 264.6 C203.7 263.4 209.6 266.5 211.5 271.5 C214.4 263.7 217.3 255.8 220.2 247.9 C213.1 245.6 206.5 241.7 200.9 236.6 C206.4 235.6 212.4 238.3 215.3 243.1 C215.3 224.1 217.3 205.2 221.4 186.6 C207.6 193.4 199.6 210.2 202.9 225.2 C198.2 225.0 195.7 219.2 196.3 214.5 C196.8 209.8 199.3 205.5 199.8 200.8 C200.9 189.7 191.4 180.8 182.6 174.2 C168.6 163.8 153.9 154.5 138.6 146.2 C166.3 152.0 191.2 170.6 204.6 195.6 C212.7 189.5 220.9 176.4 212.2 171.1 C179.5 151.2 149.3 127.2 122.5 99.9 C113.6 90.9 96.7 93.7 89.3 104.0 C81.9 114.4 83.5 129.4 91.0 139.7 C98.5 150.0 110.7 155.9 123.2 158.3 C110.9 147.8 98.7 137.2 86.4 126.7 C120.7 138.7 134.2 180.8 164.3 201.1 C179.2 211.1 201.1 221.8 196.6 239.1 C191.2 260.6 198.1 284.7 214.1 300.0 C196.5 290.0 186.9 267.7 191.7 248.1 C195.9 230.6 180.3 215.3 166.3 204.1 C148.3 189.8 130.3 175.4 112.3 161.1 C89.6 142.9 66.3 124.3 51.1 99.5 C47.7 94.1 40.5 93.1 34.5 91.1 C13.0 84.3 0.1 57.8 8.1 36.7 C9.1 49.2 10.3 62.2 16.8 73.0 C23.2 83.8 36.6 91.5 48.5 87.4 C63.3 82.3 67.3 61.7 60.3 47.7 C53.4 33.7 39.3 24.9 25.9 16.8 C27.8 20.1 29.7 23.4 31.6 26.8 C24.5 18.6 17.4 10.4 10.4 2.2 C14.8 13.2 19.3 24.2 23.8 35.2 C17.7 26.0 11.6 16.7 5.5 7.5 C11.5 27.7 17.6 48.0 23.7 68.3 C17.4 53.5 11.0 38.7 4.7 24.0 C1.0 15.3 0.0 1.4 9.3 0.4 C12.5 0.0 15.5 1.6 18.3 3.3 C40.6 17.1 59.0 37.1 70.8 60.5 C80.5 79.5 108.7 79.5 123.5 95.0 C151.3 124.0 183.5 148.8 218.8 168.1 C219.5 182.3 225.5 196.2 235.3 206.6 C235.2 188.0 233.4 169.4 230.1 151.0 C233.3 163.6 236.6 176.2 239.9 188.8 C252.9 175.6 258.8 155.8 255.2 137.7 C257.4 146.3 259.5 154.9 261.7 163.6 C266.9 144.1 268.4 123.6 265.9 103.6 C259.3 115.8 253.7 128.5 249.1 141.5 C247.0 129.8 245.0 118.1 242.9 106.4 C230.0 131.4 225.2 160.5 229.3 188.3 C218.2 158.4 224.8 122.6 245.7 98.5 C247.2 107.5 248.7 116.5 250.3 125.4 C267.5 93.1 292.9 65.2 323.6 45.2 C321.7 55.5 319.0 65.6 315.4 75.4 C338.3 58.4 362.7 43.7 388.4 31.4 C381.9 48.7 375.4 66.1 369.0 83.5 C392.0 71.0 416.0 60.3 440.6 51.5 C441.9 79.6 439.8 107.9 434.3 135.5 C442.6 126.7 451.0 117.9 459.3 109.1 C458.5 130.9 457.5 153.2 448.6 173.1 C439.6 192.9 420.6 209.9 398.9 209.7 C406.9 203.0 414.0 195.3 419.9 186.7 C400.2 190.9 383.8 207.5 380.0 227.2 C392.3 219.3 406.0 213.5 420.3 210.0 C397.4 216.4 378.4 234.9 371.2 257.6 C376.6 254.9 382.1 252.1 387.5 249.4 C391.7 251.4 394.9 255.4 395.9 260.0 C411.4 251.2 425.6 240.0 437.8 227.0 C418.8 230.5 400.3 237.2 383.5 246.9 C401.1 235.8 418.7 224.6 436.3 213.5 C444.1 208.6 452.7 198.2 446.1 191.8 C451.3 189.5 456.5 187.1 461.7 184.7 C454.5 200.2 443.7 213.9 430.3 224.4 C435.3 225.9 440.7 226.3 445.9 225.6 C436.2 236.9 424.8 246.8 412.2 254.7 C417.0 287.3 427.8 319.1 443.9 347.9 M325.3 533.5 C323.1 526.8 320.9 520.1 318.7 513.5 C320.1 514.3 321.4 515.1 322.8 516.0 C322.4 503.7 322.0 491.5 321.6 479.3 C320.1 479.2 319.4 481.0 319.1 482.5 C317.1 492.0 316.5 501.7 317.2 511.4 C315.3 510.6 314.3 513.6 314.4 515.7 C314.5 521.3 313.5 526.8 312.6 532.3 C311.7 537.3 314.3 542.5 318.1 545.9 C321.8 549.4 326.6 551.5 331.3 553.6 C328.0 548.2 324.7 542.9 321.4 537.6 C318.7 533.2 315.9 528.1 317.6 523.3 C318.3 527.7 321.3 531.6 325.3 533.5 M377.0 269.3 C376.9 275.1 371.2 278.9 366.0 281.6 C360.9 284.4 355.1 288.1 354.9 293.9 C370.6 287.5 383.6 274.7 390.1 259.1 C390.7 257.6 391.1 255.6 389.7 254.7 C389.0 254.3 388.1 254.4 387.2 254.6 C376.9 257.1 370.9 267.6 366.1 277.0 C369.8 274.5 373.4 271.9 377.0 269.3 M306.3 332.7 C300.2 333.0 295.4 338.4 289.3 339.2 C278.6 340.7 270.9 327.9 260.1 326.6 C261.2 332.2 260.7 338.1 258.8 343.5 C256.1 337.7 254.8 331.2 255.1 324.9 C255.2 319.3 256.5 313.6 254.9 308.3 C253.2 303.1 246.9 298.6 242.2 301.5 C240.5 298.4 245.6 296.2 249.1 296.3 C244.8 292.1 241.8 286.7 240.5 280.9 C239.7 276.9 239.7 272.7 238.5 268.8 C237.3 264.9 234.7 261.0 230.7 260.1 C228.4 268.2 226.1 276.4 225.9 284.9 C225.7 293.3 227.9 302.2 233.6 308.4 C238.6 313.8 240.5 321.3 243.4 328.1 C246.2 334.9 250.8 341.9 258.1 343.5 C258.8 349.9 259.5 356.3 260.2 362.7 C260.5 365.7 260.9 369.0 262.7 371.4 C265.2 374.7 269.8 375.8 273.9 375.2 C277.9 374.6 281.6 372.5 285.2 370.5 C280.4 362.4 280.1 351.7 284.5 343.3 C285.8 351.5 287.1 359.6 288.4 367.8 C288.8 370.1 289.1 372.8 287.4 374.5 C285.0 377.1 279.7 375.7 277.9 378.8 C280.4 380.3 283.4 380.8 286.2 380.2 C288.4 375.8 292.9 372.9 296.3 369.2 C305.0 359.7 305.9 345.6 306.3 332.7 M497.0 607.2 C501.7 613.0 511.0 607.7 516.0 602.1 C524.4 592.8 532.1 583.0 539.1 572.7 C544.2 565.3 549.1 557.1 549.1 548.1 C549.1 525.8 537.4 504.5 520.8 489.6 C504.1 474.8 482.8 465.9 461.1 460.8 C465.0 468.0 468.9 475.2 472.7 482.4 C456.2 476.4 456.8 447.1 439.6 444.0 C448.7 458.4 453.8 475.3 454.3 492.4 C454.5 496.9 454.2 501.6 452.1 505.6 C443.3 522.1 434.5 538.6 425.8 555.2 C427.2 541.9 432.4 529.0 440.5 518.4 C450.8 505.1 451.6 486.3 446.6 470.3 C441.7 454.2 431.8 440.2 422.1 426.4 C418.4 421.2 409.1 426.0 408.4 432.4 C407.6 438.8 411.9 444.6 415.6 449.9 C419.3 455.2 422.7 461.8 420.4 467.8 C414.8 458.5 409.6 449.0 404.7 439.2 C398.2 442.7 391.7 446.2 385.2 449.7 C391.5 457.1 396.0 466.0 398.2 475.5 C398.5 472.6 398.9 469.7 399.2 466.8 C401.1 466.1 402.4 468.9 402.6 470.9 C403.7 482.5 404.9 494.0 406.0 505.6 C398.5 487.2 391.0 468.8 383.5 450.5 C367.1 460.4 345.7 461.4 328.4 453.2 C325.4 451.8 323.6 456.7 323.7 460.0 C324.8 480.4 326.0 500.8 327.1 521.2 C327.5 528.5 327.9 535.9 330.5 542.7 C334.1 551.8 341.4 559.0 348.4 565.8 C357.9 575.0 367.6 584.4 379.1 591.1 C390.6 597.8 404.2 601.6 417.2 599.0 C427.2 597.0 436.8 603.9 443.5 611.6 C450.2 619.3 455.8 628.4 464.7 633.4 C478.4 641.1 495.5 636.7 510.6 632.1 C518.5 629.7 526.5 627.3 534.4 624.9 C526.2 632.0 515.7 636.5 504.8 637.5 C506.3 642.1 511.4 644.8 516.2 645.0 C521.0 645.2 525.7 643.5 530.3 641.8 C541.3 637.8 553.6 632.5 557.3 621.4 C566.1 595.2 571.5 567.8 573.3 540.3 C576.4 539.5 577.6 544.1 577.2 547.3 C573.7 575.1 567.8 602.6 559.7 629.4 C564.6 630.5 567.5 624.2 568.6 619.3 C573.1 597.5 577.7 575.6 582.2 553.8 C579.3 575.9 576.3 597.9 573.3 619.9 C583.4 606.8 592.6 592.6 597.3 576.8 C602.0 560.9 601.8 543.1 593.9 528.6 C591.0 523.3 586.9 518.3 581.3 516.0 C575.8 513.7 568.6 514.6 564.8 519.3 C555.9 530.3 571.8 548.8 563.2 560.1 C560.9 545.7 558.5 531.2 556.2 516.8 C555.6 512.7 554.8 508.4 552.1 505.3 C549.3 502.2 543.9 501.1 541.2 504.2 C544.6 514.4 548.1 524.6 551.5 534.8 C553.5 540.5 555.4 546.4 554.5 552.3 C553.8 557.0 551.4 561.2 549.0 565.2 C540.4 579.1 530.5 592.2 519.4 604.3 C515.5 608.5 511.1 612.8 505.5 614.0 C499.8 615.1 492.9 611.6 492.7 605.9 C492.6 603.8 495.7 605.6 497.0 607.2 M296.5 452.7 C294.2 458.6 291.9 464.4 289.6 470.3 C288.1 462.2 289.5 453.7 293.3 446.4 C284.8 447.4 276.0 445.0 269.1 439.8 C265.4 437.0 261.7 433.2 257.0 433.1 C252.3 433.0 248.5 440.2 252.7 442.3 C241.0 440.2 229.0 439.7 217.2 440.7 C226.4 447.7 234.2 456.4 240.2 466.2 C229.9 457.6 219.5 449.0 209.2 440.4 C202.8 435.1 196.0 429.7 187.9 428.7 C179.7 427.7 170.2 433.5 170.5 441.7 C180.5 438.3 192.2 440.4 200.4 447.0 C215.2 458.9 230.1 470.7 244.9 482.6 C249.2 486.1 254.0 490.5 253.3 496.0 C237.0 479.9 219.2 465.4 200.0 452.7 C195.9 450.0 191.6 447.3 186.7 446.1 C182.7 445.2 178.6 445.4 174.5 445.7 C158.5 446.5 141.4 447.8 129.0 457.9 C120.6 464.7 115.5 474.8 110.7 484.5 C108.3 489.4 105.8 494.4 105.5 499.9 C105.1 509.7 111.8 518.3 118.2 525.8 C131.2 541.2 144.2 556.6 157.2 572.0 C145.2 564.9 135.0 555.0 127.6 543.2 C124.0 550.3 121.3 557.9 119.8 565.7 C119.3 568.3 118.9 571.1 119.9 573.6 C120.9 576.1 123.1 577.9 125.3 579.5 C135.0 586.8 145.4 593.2 156.4 598.4 C163.4 601.8 171.1 604.8 178.8 603.4 C188.1 601.7 194.9 594.0 201.0 586.8 C214.3 570.9 228.5 551.6 223.6 531.4 C228.2 533.4 230.5 539.1 230.0 544.2 C229.6 549.2 227.1 553.8 224.6 558.3 C213.3 578.8 200.1 600.9 178.0 608.5 C182.4 613.9 191.2 613.5 197.0 609.7 C202.9 605.9 206.6 599.6 210.5 593.9 C217.9 583.1 226.8 573.3 236.9 564.9 C228.7 579.4 218.5 592.8 206.6 604.6 C220.9 606.6 236.0 601.5 246.3 591.3 C250.0 587.6 253.2 583.1 253.9 578.0 C254.7 572.8 252.6 567.0 247.9 564.7 C246.9 570.7 241.6 575.7 235.6 576.4 C243.8 564.9 252.0 553.3 260.2 541.7 C261.6 539.7 263.2 537.2 262.5 534.8 C262.0 533.1 260.5 531.9 259.1 530.8 C244.2 519.2 229.2 507.6 214.3 496.0 C205.6 489.2 196.5 481.8 193.0 471.4 C225.4 501.6 261.6 527.7 300.5 548.8 C292.3 527.7 284.1 506.6 275.9 485.5 C274.9 483.0 274.4 479.3 276.9 478.3 C288.1 502.4 297.7 527.3 305.4 552.8 C307.5 559.6 314.3 564.2 321.3 565.6 C328.3 567.1 335.6 566.0 342.7 564.8 C333.7 559.5 324.8 554.1 315.9 548.7 C313.1 547.1 310.3 545.3 308.8 542.4 C307.3 539.4 307.8 535.8 308.3 532.4 C312.1 505.9 316.0 479.3 319.9 452.8 C317.0 452.6 314.1 452.4 311.1 452.2 C309.3 465.5 307.5 478.8 305.7 492.1 C305.4 494.9 302.3 498.4 300.8 496.0 C302.3 483.2 303.8 470.4 305.3 457.6 C305.8 453.4 304.1 447.0 300.0 448.3 C298.1 448.8 297.2 450.9 296.5 452.7 M241.4 261.6 C243.0 270.7 244.7 280.0 248.9 288.2 C255.2 300.6 266.6 309.5 277.6 318.0 C280.9 320.6 284.3 323.2 288.4 323.7 C291.4 324.1 294.4 323.4 297.2 322.6 C312.2 318.8 327.7 314.6 339.5 304.7 C347.1 298.4 352.7 290.1 358.2 281.9 C365.6 270.9 373.2 256.3 365.9 245.2 C372.1 245.8 375.3 238.0 376.4 231.8 C377.9 223.3 379.4 214.2 376.3 206.1 C373.3 198.0 363.8 191.6 355.8 195.0 C342.5 200.8 329.3 206.5 316.0 212.2 C312.7 213.7 307.9 214.6 306.4 211.3 C300.3 198.5 294.3 185.6 288.2 172.8 C285.7 167.4 282.1 161.2 276.2 160.7 C272.4 160.3 268.9 162.4 265.9 164.7 C253.3 174.1 244.1 187.8 240.0 202.9 C234.9 222.0 238.0 242.2 241.4 261.6 M301.6 393.1 C301.4 395.6 301.1 398.2 300.9 400.7 C293.9 391.6 285.1 381.6 273.6 382.2 C260.9 382.9 253.2 396.4 248.0 408.1 C247.1 409.9 246.3 411.9 246.6 413.9 C246.9 415.9 248.4 417.6 249.9 419.1 C254.9 424.1 260.3 428.7 266.1 432.7 C272.0 436.9 278.5 440.6 285.6 441.9 C292.8 443.2 300.7 441.8 306.0 436.8 C323.4 420.5 347.8 412.1 362.2 393.1 C365.7 388.4 369.0 382.8 374.5 380.8 C383.0 377.8 388.3 367.8 386.1 359.0 C384.5 352.7 379.6 347.7 374.5 343.6 C368.3 338.6 360.7 334.2 352.8 335.0 C344.9 335.9 337.7 344.4 340.8 351.7 C331.0 349.9 320.8 353.5 312.6 359.2 C304.4 364.9 297.9 372.6 291.5 380.3 C290.8 381.1 290.1 382.0 290.1 383.1 C290.2 384.2 291.2 385.0 292.1 385.6 C300.2 390.7 310.9 385.7 318.1 379.4 C325.4 373.2 332.3 365.3 341.8 364.1 C331.1 376.9 317.1 387.0 301.6 393.1 M326.3 348.6 C331.9 348.7 335.1 342.6 338.7 338.3 C346.1 329.7 360.2 327.8 369.5 334.3 C373.9 337.3 377.1 341.8 381.1 345.4 C385.1 349.0 390.5 351.8 395.6 350.5 C398.7 349.7 400.9 353.6 400.8 356.8 C400.8 359.9 399.6 363.3 401.0 366.1 C397.8 366.2 395.4 361.5 392.3 362.3 C390.5 362.8 389.6 364.8 389.2 366.6 C388.0 371.3 387.6 376.1 388.0 380.9 C381.4 381.2 374.9 384.4 370.5 389.4 C369.7 390.3 368.9 391.5 369.2 392.8 C369.3 393.6 370.0 394.3 370.7 394.9 C380.3 402.9 394.7 400.4 406.0 395.2 C411.3 392.8 416.8 389.5 419.3 384.2 C422.5 377.3 419.8 368.9 422.0 361.6 C427.3 344.0 420.7 323.5 406.2 312.3 C398.8 306.6 387.2 303.7 380.9 310.6 C378.0 313.7 376.0 318.9 371.8 319.0 C374.3 314.3 377.1 309.7 380.1 305.3 C372.7 307.9 366.4 313.5 363.0 320.6 C360.4 315.2 366.2 309.6 371.2 306.2 C368.5 302.4 362.5 304.9 358.8 307.7 C354.7 310.8 350.6 313.9 346.5 316.9 C341.3 320.9 335.9 324.9 331.9 330.2 C327.9 335.4 325.3 342.1 326.3 348.6 M401.8 422.0 C401.5 427.7 396.6 432.0 391.9 435.2 C376.8 445.2 358.8 450.8 340.8 450.9 C346.1 454.7 353.1 455.4 359.5 454.2 C366.0 453.1 372.0 450.4 377.9 447.6 C383.1 445.2 388.3 442.8 393.5 440.4 C397.2 438.7 401.1 436.8 403.0 433.2 C407.4 424.8 411.8 416.3 416.3 407.9 C400.1 421.9 376.3 421.7 356.6 430.0 C344.6 435.1 330.7 430.1 317.8 432.1 C315.1 432.5 311.7 434.2 312.2 436.9 C330.2 438.7 348.5 437.1 366.0 432.3 C353.2 443.8 334.1 443.2 317.0 441.5 C312.2 441.0 305.9 441.3 304.3 445.9 C338.2 452.6 374.9 443.6 401.8 422.0 M372.0 97.1 C366.5 108.2 361.2 119.4 356.0 130.7 C357.6 131.3 359.4 130.2 360.9 129.2 C370.4 122.5 379.9 115.7 389.4 108.9 C393.9 105.7 398.5 102.4 402.5 98.4 C404.7 96.2 406.7 93.7 408.7 91.3 C416.9 81.2 425.2 71.1 433.5 60.9 C430.9 59.8 428.0 61.2 425.5 62.5 C412.0 69.5 398.5 76.6 385.0 83.7 C382.3 85.0 379.6 86.5 377.5 88.6 C375.1 90.9 373.5 94.0 372.0 97.1 M268.5 571.0 C264.8 569.3 260.5 569.0 256.7 570.2 C260.9 572.4 260.8 578.9 258.1 582.9 C255.5 586.9 251.3 589.7 248.7 593.8 C242.6 603.4 247.2 616.9 241.8 627.0 C248.7 632.8 258.5 634.9 267.2 632.6 C269.3 632.0 271.4 631.1 272.5 629.2 C273.3 627.6 273.2 625.8 273.0 624.0 C271.5 606.3 270.0 588.6 268.5 571.0 M251.1 562.6 C259.1 564.7 267.5 565.7 275.8 565.7 C285.3 565.7 294.7 561.9 301.6 555.2 C290.3 547.9 279.1 540.5 267.8 533.2 C268.7 538.9 265.1 544.4 261.2 548.6 C257.2 552.9 252.7 557.1 251.1 562.6 M389.3 416.5 C407.9 412.1 420.9 395.8 432.5 380.5 C435.8 376.0 439.2 371.5 440.7 366.1 C444.0 354.1 436.7 342.0 429.7 331.7 C428.2 329.3 426.5 326.9 424.2 325.3 C427.4 333.1 430.6 341.5 428.5 349.6 C426.3 357.8 427.3 366.5 426.4 375.0 C425.5 383.4 422.0 392.5 414.2 395.9 C404.2 400.3 395.5 407.5 389.3 416.5 M363.6 294.1 C363.9 294.8 364.3 295.5 364.7 296.2 C367.8 302.0 375.8 304.6 381.7 301.8 C388.4 298.7 391.1 290.8 396.0 285.2 C399.0 281.9 402.8 279.3 405.7 275.9 C408.6 272.4 410.4 267.4 408.4 263.4 C403.9 265.9 399.3 268.3 394.8 270.8 C392.8 271.9 390.7 273.1 389.5 275.0 C388.3 276.9 388.4 279.8 390.2 281.1 C387.4 280.5 384.8 278.9 382.9 276.8 C378.3 284.3 371.5 290.3 363.6 294.1 M340.9 102.7 C345.9 98.5 350.8 94.3 355.7 90.1 C357.7 88.4 359.6 86.8 361.0 84.6 C362.3 82.5 363.0 80.1 363.8 77.7 C367.3 66.2 372.2 55.2 378.4 44.9 C376.5 43.9 374.2 45.3 372.5 46.7 C354.8 61.9 344.5 83.8 334.8 105.1 C337.0 105.7 339.2 104.1 340.9 102.7 M412.4 275.4 C406.9 285.0 394.9 290.6 392.5 301.3 C399.1 301.4 405.3 304.7 410.2 309.0 C415.2 313.3 419.1 318.7 422.9 324.1 C419.8 319.1 419.2 312.7 421.5 307.3 C421.9 306.1 422.5 304.9 422.0 303.8 C417.6 294.8 414.3 285.3 412.4 275.4 M82.3 105.4 C83.1 105.2 83.8 104.5 84.4 103.9 C87.2 101.0 90.1 98.0 93.0 95.0 C94.2 93.7 95.5 92.3 95.9 90.6 C96.2 88.8 95.1 86.7 93.3 86.6 C89.2 86.4 85.6 84.1 82.0 82.0 C78.5 79.9 74.4 78.0 70.4 78.8 C66.4 79.6 63.0 84.4 65.1 87.9 C68.7 93.8 73.1 99.2 78.3 103.8 C79.4 104.8 80.9 105.8 82.3 105.4 M196.4 690.3 C194.4 690.7 192.4 691.3 190.4 691.6 C187.7 691.9 184.9 691.8 182.2 691.6 C171.3 690.9 160.3 690.2 149.4 689.6 C146.4 689.4 142.2 690.1 142.0 693.1 C144.8 694.9 148.2 695.1 151.5 695.2 C182.5 696.3 213.4 694.8 244.1 690.7 C244.1 689.3 244.1 687.9 244.0 686.5 C230.7 687.5 217.3 688.5 204.0 689.5 C201.4 689.7 198.9 689.9 196.4 690.3 M235.2 383.8 C238.9 388.2 242.6 392.6 246.4 397.0 C249.6 393.2 252.9 389.5 256.2 385.8 C258.6 383.1 255.7 378.9 252.9 376.5 C249.5 373.5 245.8 370.4 241.2 369.8 C236.7 369.2 231.4 372.3 231.6 376.9 C231.6 379.5 233.4 381.8 235.2 383.8 M226.9 210.5 C228.3 213.9 230.1 217.8 233.7 218.8 C233.7 212.0 230.0 205.2 224.2 201.5 C223.0 204.3 222.2 207.3 221.5 210.2 C219.3 219.2 218.0 228.7 220.0 237.8 C222.1 246.9 227.9 255.5 236.6 258.8 C238.3 255.0 236.7 249.9 233.0 247.8 C224.4 242.9 221.9 230.0 227.9 222.2 C229.4 220.4 227.5 217.9 226.1 216.0 C224.7 214.2 224.5 210.5 226.9 210.5 M599.6 584.6 C594.3 594.8 588.9 604.9 583.2 614.8 C582.1 616.8 581.0 618.8 579.3 620.3 C576.5 622.7 572.0 624.3 572.0 628.0 C574.5 628.8 577.2 627.6 579.5 626.2 C586.3 622.3 592.4 617.2 597.6 611.3 C600.9 607.5 604.0 603.1 604.8 598.0 C605.7 593.0 604.0 587.2 599.6 584.6 M661.1 642.6 C658.4 641.2 655.4 639.8 652.3 639.9 C649.2 639.9 645.9 641.7 645.1 644.7 C643.9 649.2 648.5 652.9 652.4 655.4 C656.6 657.9 661.7 660.5 666.2 658.6 C667.7 657.9 669.0 656.8 670.6 656.4 C672.2 656.1 673.9 656.6 675.6 656.5 C677.2 656.4 679.1 655.4 679.1 653.7 C673.4 649.6 667.4 645.8 661.1 642.6 M614.4 620.7 C610.5 624.4 606.8 628.2 603.2 632.2 C602.2 633.3 601.1 634.6 600.9 636.0 C600.1 640.2 605.8 642.9 609.7 641.6 C613.7 640.2 616.4 636.6 619.6 633.8 C622.3 631.6 625.5 629.8 627.7 627.1 C629.9 624.4 630.8 620.1 628.4 617.5 C626.6 615.5 623.5 615.2 621.0 616.1 C618.4 617.0 616.4 618.8 614.4 620.7 M635.7 649.4 C637.8 646.0 639.9 642.6 642.0 639.3 C643.8 636.4 643.2 632.5 641.3 629.7 C639.4 626.9 636.4 625.0 633.5 623.2 C631.5 632.8 627.8 642.1 622.7 650.4 C620.9 653.3 625.0 657.0 628.3 656.2 C631.7 655.5 633.9 652.3 635.7 649.4 M274.6 321.3 C269.6 316.9 264.6 312.5 259.6 308.1 C259.2 311.0 258.8 314.0 259.5 316.9 C260.2 319.8 262.2 322.5 265.1 323.2 C273.5 325.3 279.5 334.8 288.2 334.3 C290.3 334.2 292.4 333.4 294.4 332.7 C299.4 330.8 304.4 329.0 309.4 327.1 C310.5 326.7 311.6 326.3 312.2 325.3 C312.8 324.4 312.6 322.8 311.5 322.5 C307.1 323.9 302.6 325.2 298.1 326.6 C294.1 327.8 289.9 329.0 285.8 328.2 C281.5 327.3 277.9 324.2 274.6 321.3 M230.4 633.7 C230.4 632.0 229.5 630.1 227.9 630.1 C217.5 629.6 207.1 631.2 197.4 634.8 C196.6 637.0 198.0 639.5 200.1 640.6 C202.1 641.8 204.6 641.9 206.9 641.9 C209.4 642.0 211.8 642.0 214.3 642.1 C217.7 642.2 221.2 642.3 224.3 641.1 C227.5 639.9 230.3 637.0 230.4 633.7 M223.3 614.9 C225.8 614.8 228.4 614.9 230.5 613.4 C232.5 612.0 233.2 608.5 231.1 607.2 C222.3 613.0 208.4 605.3 200.8 612.6 C199.3 614.1 198.0 616.3 195.8 616.6 C193.9 616.9 191.8 615.7 190.2 616.7 C188.1 618.0 189.5 621.6 191.9 622.2 C194.2 622.8 196.6 621.7 198.8 620.6 C206.5 617.1 214.9 615.2 223.3 614.9 M316.6 323.8 C314.5 326.6 313.0 329.8 311.7 333.0 C310.6 335.8 309.6 338.5 308.8 341.3 C318.8 338.7 327.5 331.5 332.0 322.1 C331.2 318.9 327.3 317.2 324.2 317.9 C321.0 318.6 318.5 321.1 316.6 323.8 M188.2 665.7 C185.7 667.5 184.7 671.2 186.0 674.0 C187.3 676.8 190.8 678.5 193.8 677.6 C196.1 677.0 197.9 675.1 199.5 673.2 C202.8 669.1 205.6 664.5 207.8 659.6 C201.0 657.6 194.1 661.8 188.2 665.7 M435.3 160.2 C440.1 153.3 444.5 146.1 448.5 138.6 C450.0 135.7 450.7 132.4 450.5 129.1 C440.1 139.1 431.8 151.3 426.3 164.7 C429.5 166.6 433.2 163.2 435.3 160.2 M681.0 659.4 C679.1 661.1 679.1 664.2 680.4 666.5 C681.6 668.7 683.7 670.3 685.8 671.8 C691.1 675.5 696.4 679.3 702.1 682.4 C700.4 675.0 696.8 668.0 691.6 662.4 C688.9 659.3 684.0 656.6 681.0 659.4 M231.2 620.7 C230.4 618.0 226.6 618.1 223.9 618.8 C215.4 620.8 206.9 622.8 198.3 624.9 C196.6 625.3 194.7 625.8 193.8 627.3 C192.9 628.9 194.2 631.4 195.8 630.9 C204.9 628.0 214.4 626.4 223.9 625.9 C225.7 625.8 227.5 625.8 229.0 625.0 C230.6 624.2 231.7 622.3 231.2 620.7 M230.1 644.1 C220.3 646.5 210.1 647.2 200.0 646.4 C200.0 648.6 200.0 650.9 200.0 653.1 C210.3 653.6 220.8 652.9 230.9 651.0 C231.5 648.7 231.2 646.2 230.1 644.1 M591.5 628.7 C598.0 624.1 603.6 618.2 607.8 611.4 C609.6 608.5 611.3 605.3 611.3 601.8 C611.3 600.3 610.4 598.3 608.9 598.6 C607.9 598.9 607.4 600.0 607.1 601.0 C602.7 613.7 592.8 624.4 580.6 629.8 C583.2 632.9 588.2 631.1 591.5 628.7 M613.1 617.3 C615.2 615.7 617.5 614.1 618.5 611.7 C619.5 609.3 618.1 605.7 615.5 605.7 C609.1 616.7 600.3 626.3 589.8 633.5 C591.1 635.5 594.2 635.6 596.3 634.4 C598.4 633.2 599.8 631.1 601.3 629.2 C604.6 624.6 608.6 620.6 613.1 617.3 M251.9 426.7 C252.1 424.0 248.6 422.1 246.0 423.0 C243.4 423.8 241.6 426.2 240.3 428.6 C239.0 431.0 237.9 433.7 235.8 435.4 C242.1 439.0 251.4 434.0 251.9 426.7 M242.6 599.5 C237.3 600.9 235.9 607.7 235.4 613.1 C234.9 618.9 234.5 624.6 234.0 630.3 C237.5 630.4 239.0 626.1 239.4 622.6 C240.5 614.9 241.5 607.2 242.6 599.5 M344.3 313.5 C346.4 311.9 348.6 310.3 350.7 308.6 C352.8 307.0 355.1 305.3 355.9 302.7 C356.8 300.2 355.4 296.8 352.7 296.6 C349.1 303.5 343.6 309.4 336.9 313.5 C337.2 314.9 338.9 315.7 340.4 315.5 C341.9 315.3 343.1 314.4 344.3 313.5 M244.9 419.7 C244.0 417.6 241.1 417.0 239.0 418.0 C236.9 419.0 235.6 421.0 234.3 422.9 C231.5 427.2 228.7 431.5 226.0 435.9 C227.7 437.0 230.0 436.3 231.4 434.9 C232.8 433.5 233.6 431.6 234.6 429.9 C236.9 425.6 240.5 422.0 244.9 419.7 M320.3 341.5 C318.0 342.7 315.8 343.9 313.6 345.1 C312.0 345.9 310.4 346.8 309.5 348.4 C308.4 350.4 308.9 352.9 309.4 355.2 C311.5 353.7 313.6 352.2 315.8 350.6 C318.8 348.5 322.2 344.7 320.3 341.5 M233.4 245.0 C234.5 237.9 233.8 230.6 231.4 223.9 C227.0 230.2 227.9 239.6 233.4 245.0 M616.0 648.0 C617.7 649.1 619.9 647.3 621.1 645.6 C623.8 641.7 626.1 637.6 627.9 633.2 C623.5 635.3 619.6 638.4 616.5 642.2 C615.2 643.9 614.2 646.8 616.0 648.0 M395.2 355.6 C394.2 354.5 392.4 354.1 391.0 354.7 C391.9 357.9 395.2 360.3 398.5 360.2 C399.1 358.8 399.3 357.3 399.0 355.8 C397.9 355.3 396.7 355.1 395.5 355.4 M391.0 268.8 C394.0 267.8 396.8 266.1 399.2 264.0 C395.9 262.4 391.4 263.8 389.6 267.0 C389.2 267.6 389.0 268.3 389.3 268.9 C389.7 269.5 390.8 269.4 390.8 268.7 M333.9 319.9 C335.8 321.5 338.8 318.2 337.5 316.0 C336.2 313.9 332.7 314.1 330.9 315.8 C332.3 316.8 333.5 318.2 334.1 319.8 M360.4 295.3 C358.4 296.8 359.2 300.6 361.6 301.2 C363.6 299.7 362.9 296.0 360.5 295.4 " fill="#000000" stroke="none"/> <path d="M607.1 634.8 C606.4 633.3 607.9 631.5 609.6 631.4 C610.1 633.1 610.2 635.0 610.0 636.9 C609.3 637.3 608.3 637.5 607.5 637.3 C607.0 636.6 606.8 635.7 607.0 634.9 " fill="#000000" stroke="none"/> <path d="M251.4 317.0 C249.5 319.3 245.2 318.8 244.0 316.1 C245.7 313.7 250.0 314.0 251.3 316.7 " fill="#000000" stroke="none"/> <path d="M42.0 43.3 C38.9 43.6 35.8 40.7 35.9 37.6 C39.0 37.0 42.1 39.8 42.0 42.9 " fill="#000000" stroke="none"/> <path d="M228.1 361.1 C229.9 358.2 234.1 357.3 237.0 359.0 C234.5 360.7 231.5 361.5 228.5 361.4 " fill="#000000" stroke="none"/> <path d="M204.3 181.7 C203.5 181.1 202.8 180.5 202.0 180.0 C205.0 178.6 208.7 179.0 211.4 181.0 C209.2 181.8 206.8 181.8 204.5 181.2 " fill="#000000" stroke="none"/> <path d="M289.0 288.9 C289.0 289.8 289.0 290.8 288.9 291.8 C287.5 292.9 285.1 292.9 283.8 291.6 C282.5 290.2 282.7 287.7 284.3 286.7 C285.9 285.7 288.4 287.0 288.4 288.9 " fill="#000000" stroke="none"/> <path d="M292.7 430.3 C293.4 431.8 294.5 433.1 296.0 434.0 C293.7 434.5 291.5 435.0 289.2 435.5 C289.3 433.4 290.7 431.4 292.6 430.5 " fill="#000000" stroke="none"/> <path d="M243.5 311.3 C242.6 311.6 241.7 311.4 240.9 310.9 C241.7 307.4 246.7 305.7 249.4 308.0 C248.1 309.9 245.8 311.1 243.5 311.1 " fill="#000000" stroke="none"/> <path d="M377.2 269.3 C376.0 266.4 378.0 263.1 380.6 261.3 C382.0 262.3 382.0 264.6 381.1 266.0 C380.1 267.5 378.5 268.3 376.9 269.1 " fill="#000000" stroke="none"/> <path d="M375.7 461.4 C375.7 458.8 377.2 456.3 379.5 455.2 C380.7 460.3 380.4 465.7 378.6 470.7 C375.3 469.1 373.9 464.6 375.6 461.4 " fill="#000000" stroke="none"/> <path d="M400.8 382.7 C398.6 384.3 395.5 384.8 392.9 383.9 C396.6 380.6 401.1 378.3 405.9 377.1 C405.5 379.7 403.4 381.9 400.9 382.5 " fill="#000000" stroke="none"/> <path d="M594.2 606.3 C595.5 601.9 596.8 597.5 598.2 593.1 C598.4 592.4 599.5 592.2 599.9 592.9 C600.7 597.9 598.4 603.4 594.2 606.3 " fill="#000000" stroke="none"/> <path d="M27.6 46.3 C25.3 44.3 24.0 41.2 24.2 38.2 C28.8 39.5 32.4 44.1 32.5 48.9 C32.3 49.8 31.4 50.4 30.5 50.3 C29.5 49.0 28.5 47.7 27.5 46.4 " fill="#000000" stroke="none"/> <path d="M202.9 248.3 C203.8 246.7 206.2 247.0 208.0 247.7 C211.5 249.1 214.8 250.9 217.9 253.1 C214.0 254.2 209.9 254.1 206.2 252.8 C204.2 252.1 201.9 250.2 202.9 248.3 " fill="#000000" stroke="none"/> <path d="M703.3 659.5 C706.3 660.4 708.6 663.0 709.8 665.9 C710.9 668.7 711.1 671.8 710.3 674.6 C707.9 669.6 705.6 664.6 703.3 659.5 " fill="#000000" stroke="none"/> <path d="M242.6 181.4 C239.5 174.7 238.0 167.4 238.2 160.1 C242.2 166.3 243.8 174.1 242.6 181.4 " fill="#000000" stroke="none"/> <path d="M393.8 377.5 C396.6 373.3 401.3 370.4 406.4 369.7 C408.9 369.4 412.3 370.5 412.0 373.0 C405.8 373.9 399.7 375.4 393.8 377.5 " fill="#000000" stroke="none"/> <path d="M323.1 248.5 C319.4 254.0 313.4 257.9 306.8 259.0 C309.5 252.7 316.3 248.4 323.1 248.5 " fill="#000000" stroke="none"/> <path d="M273.4 424.9 C266.6 426.4 259.2 420.8 258.8 413.9 C258.8 413.5 258.8 413.1 259.0 412.9 C263.8 416.9 268.6 420.9 273.4 424.9 " fill="#000000" stroke="none"/> <path d="M247.2 263.9 C257.7 265.9 267.9 269.1 277.7 273.4 C279.5 274.2 281.5 275.8 280.9 277.6 C270.7 276.0 260.6 273.3 251.1 269.4 C248.7 268.5 245.8 266.1 247.2 263.9 " fill="#000000" stroke="none"/> <path d="M277.6 227.2 C281.3 231.6 283.5 237.3 283.7 243.0 C285.0 242.4 286.3 241.8 287.6 241.2 C289.7 242.8 289.6 245.9 289.3 248.5 C289.0 251.7 288.6 254.8 288.3 257.9 C286.1 258.0 284.7 255.7 283.9 253.7 C281.1 247.4 278.6 240.9 276.6 234.3 C275.9 231.9 275.4 228.6 277.6 227.2 " fill="#000000" stroke="none"/> <path d="M153.1 184.5 C162.2 189.7 170.9 195.6 179.1 202.0 C180.8 201.7 182.6 202.0 184.1 202.9 C179.9 204.6 175.3 202.1 171.6 199.6 C165.0 195.2 158.8 190.1 153.1 184.5 " fill="#000000" stroke="none"/> <path d="M355.2 539.0 C358.8 536.9 363.4 538.2 367.4 539.4 C376.1 542.1 385.0 544.0 394.0 545.1 C398.8 545.7 404.1 545.9 407.8 542.9 C410.0 541.2 411.7 538.4 414.5 538.1 C414.4 543.5 409.7 547.8 404.5 549.2 C399.3 550.7 393.9 549.8 388.6 548.9 C377.1 547.0 365.2 544.9 355.2 539.0 " fill="#000000" stroke="none"/> <path d="M444.2 201.0 C428.8 213.2 412.4 224.3 395.4 234.3 C394.2 235.0 392.4 234.2 392.2 232.8 C409.8 220.8 427.5 208.9 445.1 196.9 C446.7 197.4 445.6 199.9 444.2 201.0 " fill="#000000" stroke="none"/> <path d="M177.7 574.0 C174.1 577.0 170.5 580.1 166.2 581.9 C161.9 583.7 156.7 584.2 152.6 581.9 C152.8 579.2 156.5 578.8 159.1 578.6 C165.6 578.2 171.9 575.1 176.1 570.1 C181.5 563.8 183.3 555.1 183.9 546.7 C184.4 538.3 183.9 529.9 185.7 521.7 C186.3 519.1 187.2 516.3 189.5 515.0 C191.0 516.5 190.9 519.0 190.7 521.2 C189.4 533.0 188.1 544.7 186.9 556.5 C186.5 559.9 186.1 563.4 184.5 566.4 C182.9 569.4 180.3 571.7 177.7 574.0 " fill="#000000" stroke="none"/> <path d="M367.6 370.0 C368.6 375.8 364.7 381.2 360.8 385.5 C348.7 398.8 333.9 409.5 319.3 420.0 C317.3 421.4 314.9 422.8 312.7 421.8 C319.2 416.9 325.7 412.0 332.1 407.0 C345.9 396.5 360.1 385.5 367.6 370.0 " fill="#000000" stroke="none"/> <path d="M276.3 300.9 C277.9 297.6 282.4 297.1 286.2 297.1 C293.2 297.1 300.2 297.1 307.2 297.1 C310.1 297.1 313.5 297.3 315.4 299.6 C317.8 302.4 316.4 306.8 314.0 309.6 C309.4 315.0 301.4 317.1 294.8 314.6 C293.6 314.2 292.7 315.6 292.0 316.7 C291.4 317.8 289.8 318.8 289.1 317.7 C287.0 314.5 283.3 312.9 280.2 310.7 C277.2 308.4 274.6 304.3 276.3 300.9 M307.2 305.4 C308.8 305.5 310.7 305.5 311.8 304.3 C313.0 303.2 312.5 300.6 310.9 300.6 C301.2 300.9 291.4 301.2 281.7 301.5 C280.6 304.0 282.2 307.1 284.6 308.5 C286.9 310.0 289.8 310.3 292.5 310.5 C295.4 310.8 298.4 311.0 301.3 311.3 C304.7 311.6 309.1 311.1 309.9 307.8 C309.0 307.0 308.1 306.2 307.2 305.4 " fill="#000000" stroke="none"/> <path d="M351.2 550.8 C355.5 552.7 359.9 554.5 364.2 556.3 C397.4 570.2 430.5 584.2 463.6 598.1 C466.5 599.3 469.7 601.1 469.9 604.1 C432.1 590.2 394.8 574.7 358.3 557.8 C355.1 556.3 351.6 554.3 351.2 550.8 " fill="#000000" stroke="none"/> <path d="M527.4 531.6 C529.7 540.1 530.3 549.0 528.9 557.7 C528.6 560.0 528.1 562.4 526.8 564.3 C525.2 566.7 522.6 568.3 520.1 569.7 C514.5 572.8 508.9 575.8 503.2 578.7 C496.5 582.1 489.4 585.4 481.8 585.7 C476.1 585.9 470.5 584.3 465.0 582.7 C448.7 578.1 432.4 573.5 416.2 568.9 C413.6 568.2 410.4 565.5 412.3 563.6 C428.6 568.1 445.0 572.7 461.4 577.2 C468.1 579.1 475.0 581.0 482.0 580.8 C494.5 580.4 505.8 573.6 516.4 567.0 C519.2 565.2 522.2 563.3 523.7 560.3 C524.8 558.2 525.1 555.8 525.2 553.5 C525.7 545.2 524.6 536.8 522.1 528.8 C522.5 527.6 524.4 527.3 525.5 528.1 C526.6 528.9 527.0 530.3 527.4 531.6 " fill="#000000" stroke="none"/> <path d="M295.1 277.9 C292.6 279.0 288.6 280.1 287.9 277.4 C286.3 270.7 278.9 267.3 272.2 265.9 C265.6 264.4 258.2 263.8 253.1 259.2 C245.9 252.9 245.9 241.9 247.1 232.4 C247.6 228.4 247.7 223.4 244.2 221.6 C241.3 220.0 241.6 215.1 244.4 213.3 C247.2 211.4 251.1 212.2 253.8 214.3 C256.4 216.3 258.1 219.3 259.7 222.3 C265.5 233.0 271.4 243.8 277.3 254.6 C278.9 257.6 280.7 260.8 283.6 262.6 C286.5 264.4 290.9 264.4 292.8 261.5 C291.8 264.2 290.7 267.0 291.0 269.9 C291.3 272.7 293.6 275.6 296.5 275.6 C294.7 273.1 298.5 270.5 301.5 269.9 C313.6 267.1 325.3 262.6 336.1 256.5 C341.7 253.3 347.5 249.6 353.9 249.7 C360.4 249.9 367.0 256.2 364.7 262.2 C363.9 258.8 358.7 259.0 356.4 261.5 C354.1 264.0 353.5 267.7 352.0 270.7 C347.7 279.3 334.5 281.5 327.7 274.8 C338.8 277.4 351.3 269.6 354.0 258.5 C345.3 259.5 336.9 263.6 330.9 270.0 C325.6 275.5 313.0 268.4 310.1 275.4 C318.4 285.4 335.1 280.2 346.9 285.8 C346.5 287.0 346.0 288.2 345.5 289.4 C334.3 288.2 323.0 286.8 311.8 285.4 C309.5 285.1 307.1 284.8 304.8 284.3 C307.3 283.0 309.8 281.7 312.3 280.4 C307.6 276.5 300.7 275.5 295.1 277.9 M258.3 257.6 C264.6 261.4 271.3 264.5 278.3 266.9 C279.9 264.7 277.7 261.5 275.2 260.3 C272.7 259.0 269.7 258.6 267.8 256.5 C266.4 255.0 265.9 252.8 265.3 250.8 C263.1 243.0 258.6 235.9 252.6 230.5 C252.6 229.6 251.2 230.5 251.1 231.4 C250.7 236.4 250.8 241.5 251.4 246.5 C251.7 249.1 252.2 251.8 253.7 253.9 C254.9 255.5 256.6 256.6 258.3 257.6 " fill="#000000" stroke="none"/> </svg>